# xmcd
#
# Track frame offsets: 
#        150
#        13532
#        27784
#        41354
#        58563
#        74001
#        88640
#        105621
#        117389
#        132378
#        148053
#        167491
#        182965
#        198948
#        218149
#        234499
#
# Disc length: 3278 seconds
#
# Revision: 0
# Processed by: cddbd v1.5.2PL0 Copyright (c) Steve Scherf et al.
# Submitted via: ExactAudioCopyFreeDBPlugin 1.0
#
DISCID=e10ccc10
DTITLE=Truck Stop - Der Wilde,Wilde Westen CD3
DYEAR=2017
DGENRE=Country
TTITLE0=Take It Easy, altes Haus
TTITLE1=Nashville Tennessee
TTITLE2=Jede Menge Hits
TTITLE3=Old Texas Town, die Westernstadt
TTITLE4=Du bist der absolute Wahnsinn
TTITLE5=Träume von Jamaica
TTITLE6=Taufschein, Trauschein
TTITLE7=Freizeit-Cowboy
TTITLE8=Ich hab' so das Gefühl
TTITLE9=Hier spricht der Truck
TTITLE10=Nein danke, ich rauch' nicht mehr
TTITLE11=Immer nur Sekt und Kaviar
TTITLE12=Cornflakes, Hamburg-Amsterdam
TTITLE13=Lass mich geh'n
TTITLE14=Die Sonne steht tief
TTITLE15=Lass die Mädels wissen...
EXTD=
EXTT0=
EXTT1=
EXTT2=
EXTT3=
EXTT4=
EXTT5=
EXTT6=
EXTT7=
EXTT8=
EXTT9=
EXTT10=
EXTT11=
EXTT12=
EXTT13=
EXTT14=
EXTT15=
PLAYORDER=
